HIERARCHY
ROOT hip
{
	OFFSET 0.000000 0.000000 0.000000 
	CHANNELS 6 Xposition Yposition Zposition Xrotation Zrotation Yrotation
	JOINT abdomen
	{
		OFFSET 0.000000 3.402643 0.000000 
		CHANNELS 3 Xrotation Zrotation Yrotation
		JOINT chest
		{
			OFFSET 0.000000 8.438565 -0.680529 
			CHANNELS 3 Xrotation Zrotation Yrotation
			JOINT neck
			{
				OFFSET 0.000000 10.207942 -0.272212 
				CHANNELS 3 Xrotation Zrotation Yrotation
				JOINT head
				{
					OFFSET 0.000000 3.130431 0.000000 
					CHANNELS 3 Xrotation Zrotation Yrotation
					End Site
					{
						OFFSET 0.000000 3.130435 0.000000 
					}
				}
			}
			JOINT lCollar
			{
				OFFSET 3.470700 6.669187 -0.816635 
				CHANNELS 3 Yrotation Zrotation Xrotation
				JOINT lShldr
				{
					OFFSET 3.198488 0.000000 0.000000 
					CHANNELS 3 Zrotation Yrotation Xrotation
					JOINT lForeArm
					{
						OFFSET 10.139888 0.000000 0.000000 
						CHANNELS 3 Yrotation Zrotation Xrotation
						JOINT lHand
						{
							OFFSET 8.370511 0.000000 0.000000 
							CHANNELS 3 Zrotation Yrotation Xrotation
							End Site
							{
								OFFSET 4.083176 0.000000 0.000000 
							}
						}
					}
				}
			}
			JOINT rCollar
			{
				OFFSET -3.470700 6.669187 -0.816635 
				CHANNELS 3 Yrotation Zrotation Xrotation
				JOINT rShldr
				{
					OFFSET -3.198488 0.000000 0.000000 
					CHANNELS 3 Zrotation Yrotation Xrotation
					JOINT rForeArm
					{
						OFFSET -10.139888 0.000000 0.000000 
						CHANNELS 3 Yrotation Zrotation Xrotation
						JOINT rHand
						{
							OFFSET -8.370511 0.000000 0.000000 
							CHANNELS 3 Zrotation Yrotation Xrotation
							End Site
							{
								OFFSET -4.083176 0.000000 0.000000 
							}
						}
					}
				}
			}
		}
	}
	JOINT lThigh
	{
		OFFSET 5.308129 -1.633274 1.361059 
		CHANNELS 3 Xrotation Zrotation Yrotation
		JOINT lShin
		{
			OFFSET -2.041588 -20.007561 0.000000 
			CHANNELS 3 Xrotation Zrotation Yrotation
			JOINT lFoot
			{
				OFFSET 0.000000 -19.190928 -1.224953 
				CHANNELS 3 Xrotation Yrotation Zrotation
				End Site
				{
					OFFSET 0.000000 -2.449906 4.627600 
				}
			}
		}
	}
	JOINT rThigh
	{
		OFFSET -5.308129 -1.633274 1.361059 
		CHANNELS 3 Xrotation Zrotation Yrotation
		JOINT rShin
		{
			OFFSET 2.041588 -20.007561 0.000000 
			CHANNELS 3 Xrotation Zrotation Yrotation
			JOINT rFoot
			{
				OFFSET 0.000000 -19.190928 -1.224953 
				CHANNELS 3 Xrotation Yrotation Zrotation
				End Site
				{
					OFFSET 0.000000 -2.449906 4.627600 
				}
			}
		}
	}
}
MOTION
Frames: 16
Frame Time: 0.016667
37.707664 39.789043 9.045525 152.812485 178.662994 2.090414 11.612752 -4.894095 -3.333187 27.860172 -10.319624 2.838722 7.007311 5.478406 0.363407 -4.345213 7.169897 -14.765341 36.396538 -10.504198 25.000000 1.632871 -7.634788 -34.647087 -19.527718 6.704982 -49.721684 0.839033 33.193142 -61.409977 40.014462 -30.000000 24.997293 -56.429752 66.643288 -66.338425 39.636959 -60.251945 -13.054154 21.556757 -29.975965 -73.552612 -61.999889 37.282452 20.172779 63.162060 24.388016 2.826856 27.602568 -19.924988 -7.691222 -24.453093 -49.136448 -18.652601 26.098799 -4.017374 0.385861 34.518021 28.091177 82.304657 
38.735943 39.708302 9.165484 152.972443 179.882874 1.796891 11.612752 -4.894095 -3.333187 27.284658 -10.358287 2.878900 7.137641 4.013629 0.264392 -4.673347 7.187922 -15.357339 36.929722 -11.572189 24.996868 1.712712 -8.662763 -34.665546 -20.538330 8.524054 -53.393593 7.611609 33.940968 -58.076157 38.940979 -30.000000 24.999409 -54.059006 67.709206 -63.825497 43.195465 -62.390903 -6.512636 28.208893 -27.339214 -75.795792 -59.412457 37.624699 21.154535 60.043484 23.449818 2.695877 29.054447 -18.966360 -6.384875 -30.848665 -49.242393 -18.202776 32.098747 -6.777231 0.480377 31.532001 27.643984 72.947060 
39.764851 39.627510 9.285276 153.135300 -178.896866 1.494240 11.612752 -4.894095 -3.333187 26.699327 -10.396943 2.917319 7.272171 2.558585 0.146774 -4.992285 7.204980 -15.949311 37.471016 -12.637533 24.999439 1.783373 -9.687157 -34.695324 -21.455326 10.409297 -57.039333 14.462751 34.339710 -54.656525 37.864841 -30.000000 25.000000 -51.442360 68.739990 -61.064171 47.570557 -64.294525 0.745189 34.507320 -24.480259 -77.611061 -56.822456 37.933739 22.144970 56.939594 22.513479 2.618649 30.485058 -17.974611 -5.142890 -37.265179 -49.333378 -17.702587 38.124680 -9.540945 0.320689 28.530661 27.648964 63.622391 
40.897205 39.540081 9.380960 153.199066 -178.291168 0.791246 11.612752 -4.894095 -3.333187 25.775473 -10.073939 3.044025 7.637668 1.113281 0.049009 -5.141589 7.211560 -16.027996 38.169453 -13.547866 24.990551 1.096048 -10.664727 -34.666389 -22.847404 13.118334 -59.648781 21.513409 33.014175 -51.570393 37.245766 -30.000000 24.999159 -47.753571 69.747902 -56.806614 53.189442 -63.651497 -0.863754 26.780422 -19.838764 -76.729279 -54.028610 39.210484 23.623913 53.401821 21.585329 2.541435 31.480885 -19.155579 -5.285833 -43.162544 -48.970406 -16.860888 43.344463 -10.984962 0.562493 27.036818 27.060068 61.012680 
42.029827 39.452656 9.476523 153.277710 -177.685547 0.087819 11.612752 -4.894095 -3.333187 24.851379 -9.750871 3.180401 8.008196 -0.322265 -0.068413 -5.277185 7.209091 -16.096996 38.865307 -14.444764 24.995348 0.417782 -11.637112 -34.627182 -24.124556 15.892172 -62.180805 28.350519 31.401447 -48.745213 36.617104 -30.000000 24.995348 -43.652328 70.657150 -52.142815 58.733677 -63.092697 -2.498783 19.407131 -15.122167 -76.523178 -51.139988 40.433830 25.219738 49.912678 20.637516 2.499308 32.479271 -20.323200 -5.434299 -48.981632 -48.559513 -16.127703 48.574497 -12.466080 0.668529 25.547945 26.541658 58.403419 
43.191433 39.366802 9.552785 153.125412 -177.021500 -0.196063 11.612752 -4.894095 -3.333187 23.629940 -9.613348 3.287936 8.596282 -1.142575 -0.127123 -5.472895 7.028701 -16.415369 39.265530 -15.018022 24.993143 -0.580733 -13.282525 -34.591911 -24.323063 19.750029 -58.832645 32.664898 30.686432 -47.029747 34.944386 -30.000000 25.000000 -35.181084 72.437660 -43.540730 65.597198 -64.265663 4.935038 23.116587 -10.862029 -77.320717 -47.907246 41.329884 26.711412 45.931721 19.223425 2.320534 33.434738 -23.204580 -8.983525 -53.297230 -48.851532 -15.940371 52.435104 -12.721298 1.010425 24.995043 24.819637 55.907036 
44.352825 39.281189 9.628857 152.979782 -176.347778 -0.480032 11.612752 -4.894095 -3.333187 22.398216 -9.465977 3.405125 9.186381 -1.962879 -0.195532 -5.662649 6.839641 -16.723047 39.667835 -15.585631 25.000000 -1.582180 -14.921556 -34.521179 -24.771273 23.595289 -55.374329 36.930405 29.865696 -45.378963 33.278500 -30.000000 24.997364 -24.976885 73.755478 -33.198208 72.984467 -65.038330 12.885509 26.730356 -6.544602 -77.831123 -44.598587 42.173500 28.299881 42.000511 17.802206 2.234719 34.214417 -26.133566 -12.571536 -57.632126 -49.123482 -15.706524 56.281868 -12.976632 1.318819 24.365129 23.101719 53.426754 
45.482029 39.231201 9.676675 152.667938 -175.693649 -0.676325 11.612752 -4.894095 -3.333187 21.006996 -9.406426 3.512696 9.844418 -2.548807 -0.235012 -6.208862 6.613954 -17.020109 40.147991 -16.538433 24.995638 -2.164361 -16.762615 -34.555649 -25.419476 27.822300 -51.103992 40.800602 29.220659 -43.866470 31.468533 -30.000000 24.998234 -12.702051 73.777939 -19.608229 79.345444 -66.367027 19.867392 28.530838 -0.849394 -77.894890 -40.878052 42.602497 29.691217 37.951420 15.981601 1.939631 34.080654 -27.473858 -17.247427 -60.761036 -49.373726 -15.594434 59.373894 -13.085672 1.625977 22.954128 21.162323 50.889023 
46.610657 39.181458 9.724021 152.361450 -175.039642 -0.882370 11.612752 -4.894095 -3.333187 19.616627 -9.337109 3.621866 10.494075 -3.144493 -0.283848 -6.759619 6.379447 -17.317421 40.620541 -17.495859 24.997732 -2.748980 -18.594534 -34.575649 -26.463463 31.997887 -46.600002 44.627842 28.482460 -42.413910 29.674501 -30.000000 25.000000 -0.989263 73.005409 -6.586926 86.367256 -67.347000 27.515919 30.316765 4.868947 -77.783844 -37.108570 42.940933 31.139212 33.935478 14.155022 1.801720 33.825382 -28.796778 -21.972445 -63.894657 -49.606647 -15.460000 62.448666 -13.221251 1.918759 21.453873 19.280878 48.337559 
47.642967 39.168270 9.700513 152.445435 -174.445953 -1.756851 11.612752 -4.894095 -3.333187 18.720537 -9.277928 3.690902 10.696671 -3.935481 -0.333259 -7.343212 6.324849 -17.275385 40.865707 -18.984098 24.998857 -3.713130 -19.212883 -34.479244 -28.654898 36.283920 -42.683681 47.480389 27.637516 -41.572189 28.227146 -30.000000 24.997995 8.393808 71.581779 3.913797 92.646873 -68.059067 35.038643 30.844189 11.325191 -76.928879 -32.187702 43.181259 32.710545 30.241835 12.575328 1.612100 33.749268 -29.032869 -24.818356 -65.934776 -48.980782 -14.838398 65.490150 -13.610620 2.121122 18.484819 17.996754 46.053513 
48.674301 39.155003 9.676606 152.549164 -173.844391 -2.643211 11.612752 -4.894095 -3.333187 17.835943 -9.218844 3.748734 10.901438 -4.726452 -0.392515 -7.923975 6.260895 -17.234447 41.109497 -20.493452 25.000000 -4.694444 -19.817013 -34.365833 -31.360960 40.435673 -38.328251 50.291077 26.760935 -40.810326 26.793167 -30.000000 24.997826 16.154331 69.699036 12.803147 99.254257 -68.436752 42.867641 31.476883 17.768803 -75.972321 -27.246742 43.318172 34.328312 26.602865 10.995505 1.503858 33.633389 -29.235876 -27.669888 -67.957375 -48.337658 -14.224785 68.529083 -13.982783 2.296022 15.481711 16.825151 43.740807 
49.560131 39.129444 9.593169 153.274155 -173.084427 -4.152203 11.612752 -4.894095 -3.333187 17.593479 -9.414052 3.721389 10.910231 -5.341639 -0.442090 -8.508620 6.329844 -17.128799 41.187157 -22.328653 24.995287 -5.887861 -19.533772 -34.130360 -35.319672 44.736084 -33.561073 51.561367 25.754913 -41.165287 25.753099 -30.000000 24.998972 20.987667 66.956406 19.385599 104.593369 -68.941811 48.234459 31.500994 23.129555 -74.549515 -22.453287 43.028809 35.409412 24.868429 10.661469 1.534286 33.534996 -29.649927 -27.386639 -69.370270 -47.133221 -13.360733 70.609024 -14.265647 2.441610 14.335186 16.577368 43.102394 
50.445061 39.103481 9.509706 154.030289 -172.341965 -5.676175 11.612752 -4.894095 -3.333187 17.351202 -9.609269 3.694100 10.919153 -5.966588 -0.482014 -9.094110 6.398512 -17.032881 41.266109 -24.164040 24.995354 -7.075657 -19.247232 -33.911583 -40.127182 48.759972 -27.946787 52.821354 24.754280 -41.540367 24.708710 -30.000000 24.996920 24.571491 64.033676 24.740875 110.138649 -69.255615 53.805630 31.681768 28.477800 -73.047272 -17.696373 42.692684 36.434048 23.142952 10.321181 1.565845 33.418114 -30.048298 -27.054947 -70.726563 -45.911610 -12.532224 72.706718 -14.509514 2.570152 13.181566 16.347486 42.456638 
51.189323 39.017143 9.423617 155.023773 -171.435532 -7.269808 11.612752 -4.894095 -3.333187 17.309347 -10.039042 3.609141 11.028101 -6.025172 -0.491734 -9.775437 6.260220 -17.529757 41.337009 -24.587975 24.999554 -8.743368 -19.721313 -33.618214 -47.196354 52.618191 -18.830324 53.293530 23.945242 -42.327301 23.568365 -30.000000 25.000000 26.276691 60.133873 28.803635 115.135994 -69.905884 58.057003 32.135098 32.195713 -71.518997 -12.872941 41.862526 36.906437 21.755320 10.057310 1.600998 33.657410 -29.005487 -22.762402 -72.023849 -44.865578 -11.817056 74.540657 -15.006763 2.645150 12.639092 16.651556 41.526665 
51.933125 38.930225 9.337687 -23.965027 -9.428953 171.129181 11.612752 -4.894095 -3.333187 17.280344 -10.468981 3.514752 11.126262 -6.083763 -0.491741 -10.459237 6.103208 -18.035370 41.415436 -25.000000 25.000000 -10.418347 -20.207235 -33.321903 -55.869762 55.635052 -8.132695 53.768253 23.124065 -43.117146 22.417980 -30.000000 25.000000 27.296686 56.200180 32.231289 120.384239 -70.418869 62.569923 32.732563 35.893421 -69.887810 -8.140236 41.016838 37.281540 20.357840 9.783602 1.660654 33.813568 -27.979046 -18.496796 -73.290329 -43.817688 -11.125027 76.403000 -15.487261 2.685719 12.065138 16.942656 40.583790 
52.608784 38.756935 9.275714 -23.176893 -10.002899 169.615311 11.612752 -4.894095 -3.333187 17.029514 -10.634904 3.497332 11.270469 -5.937292 -0.482010 -10.997444 5.928001 -18.540085 41.434990 -25.000000 24.998514 -12.401742 -21.693743 -32.965691 -67.077972 57.069923 5.782855 54.308308 22.690903 -43.441620 21.003832 -29.166773 24.985355 27.533108 52.086044 34.691757 123.540321 -70.947556 64.026466 32.899193 38.265816 -68.514793 -3.823507 40.510857 37.644749 18.910828 9.206898 1.601709 33.040134 -26.895170 -16.839382 -74.437531 -43.002499 -10.599363 78.288719 -15.516955 2.835989 11.670846 17.194696 38.820225 
